<svg xmlns="http://www.w3.org/2000/svg" width="1110" height="438" viewBox="0 0 1110 438" role="img" aria-label="AutoFlow lifecycle with bounded fail loops and isolated sub-contexts">
<!-- SPDX-FileCopyrightText: 2026 Munsik-Park -->
<!-- SPDX-License-Identifier: Elastic-2.0 -->
<!-- Generated by docs/assets/render-lifecycle-svg.py (dark) — edit the script, not this file. -->
<defs>
<marker id="arr" viewBox="0 0 8 8" refX="6.5" refY="4" markerWidth="7" markerHeight="7" orient="auto"><path d="M1,0.8 L6.6,4 L1,7.2" fill="none" stroke="#6e7681" stroke-width="1.5" stroke-linecap="round" stroke-linejoin="round"/></marker>
<marker id="arrf" viewBox="0 0 8 8" refX="6.5" refY="4" markerWidth="7" markerHeight="7" orient="auto"><path d="M1,0.8 L6.6,4 L1,7.2" fill="none" stroke="#f85149" stroke-width="1.5" stroke-linecap="round" stroke-linejoin="round"/></marker>
</defs>
<rect width="1110" height="438" fill="#0d1117"/>
<text x="22" y="34" font-family="-apple-system,BlinkMacSystemFont,'Segoe UI','Noto Sans',Helvetica,Arial,sans-serif" font-size="11" font-weight="700" letter-spacing="2.2" fill="#9198a1">AUTOFLOW · LIFECYCLE</text>
<text x="1090" y="34" text-anchor="end" font-family="-apple-system,BlinkMacSystemFont,'Segoe UI','Noto Sans',Helvetica,Arial,sans-serif" font-size="11" fill="#9198a1">solid → happy path · dashed → bounded fail / stop paths</text>
<rect x="20" y="80" width="190" height="228" rx="12" fill="#161b22" stroke="#30363d"/>
<text x="32" y="105" font-family="-apple-system,BlinkMacSystemFont,'Segoe UI','Noto Sans',Helvetica,Arial,sans-serif" font-size="11" font-weight="700" letter-spacing="1.6" fill="#9198a1"><tspan opacity="0.55">01</tspan>  ANALYSIS</text>
<rect x="32" y="120" width="166" height="46" rx="8" fill="#121d2f" stroke="#1f6feb" stroke-width="1.2"/>
<text x="44" y="139" font-family="ui-monospace,'SF Mono','Cascadia Mono','Roboto Mono',Menlo,monospace" font-size="12" font-weight="600" fill="#79c0ff">PREFLIGHT</text>
<text x="44" y="155" font-family="-apple-system,BlinkMacSystemFont,'Segoe UI','Noto Sans',Helvetica,Arial,sans-serif" font-size="10" fill="#9198a1">git clean · prior-cycle check</text>
<line x1="115.0" y1="168" x2="115.0" y2="180" stroke="#6e7681" stroke-width="1.5" marker-end="url(#arr)"/>
<rect x="32" y="184" width="166" height="46" rx="8" fill="#21262d" stroke="#3d444d" stroke-width="1.2"/>
<text x="44" y="203" font-family="ui-monospace,'SF Mono','Cascadia Mono','Roboto Mono',Menlo,monospace" font-size="12" font-weight="600" fill="#e6edf3">DIAGNOSE</text>
<text x="44" y="219" font-family="-apple-system,BlinkMacSystemFont,'Segoe UI','Noto Sans',Helvetica,Arial,sans-serif" font-size="10" fill="#9198a1">analysis unit · one spawn</text>
<g stroke="#39c5cf" fill="none" stroke-width="1.3"><rect x="178" y="195" width="7" height="7" rx="1.5"/><rect x="181" y="192" width="7" height="7" rx="1.5"/></g>
<line x1="115.0" y1="232" x2="115.0" y2="244" stroke="#6e7681" stroke-width="1.5" marker-end="url(#arr)"/>
<rect x="32" y="248" width="166" height="46" rx="8" fill="#2a2211" stroke="#9e6a03" stroke-width="1.2"/>
<path d="M48,258 l4.5,4.5 l-4.5,4.5 l-4.5,-4.5 Z" fill="#9e6a03"/>
<text x="58" y="267" font-family="ui-monospace,'SF Mono','Cascadia Mono','Roboto Mono',Menlo,monospace" font-size="12" font-weight="600" fill="#e3b341">GATE:HYPOTHESIS</text>
<text x="44" y="283" font-family="-apple-system,BlinkMacSystemFont,'Segoe UI','Noto Sans',Helvetica,Arial,sans-serif" font-size="10" fill="#9198a1">fresh eval · structure + cause</text>
<text x="190" y="283" text-anchor="end" font-family="-apple-system,BlinkMacSystemFont,'Segoe UI','Noto Sans',Helvetica,Arial,sans-serif" font-size="9" fill="#f85149">↩ ≤2×</text>
<rect x="240" y="80" width="190" height="164" rx="12" fill="#161b22" stroke="#30363d"/>
<text x="252" y="105" font-family="-apple-system,BlinkMacSystemFont,'Segoe UI','Noto Sans',Helvetica,Arial,sans-serif" font-size="11" font-weight="700" letter-spacing="1.6" fill="#9198a1"><tspan opacity="0.55">02</tspan>  PLANNING</text>
<rect x="252" y="120" width="166" height="46" rx="8" fill="#21262d" stroke="#3d444d" stroke-width="1.2"/>
<text x="264" y="139" font-family="ui-monospace,'SF Mono','Cascadia Mono','Roboto Mono',Menlo,monospace" font-size="12" font-weight="600" fill="#e6edf3">ARCHITECT</text>
<text x="264" y="155" font-family="-apple-system,BlinkMacSystemFont,'Segoe UI','Noto Sans',Helvetica,Arial,sans-serif" font-size="10" fill="#9198a1">design unit · one spawn</text>
<g stroke="#39c5cf" fill="none" stroke-width="1.3"><rect x="398" y="131" width="7" height="7" rx="1.5"/><rect x="401" y="128" width="7" height="7" rx="1.5"/></g>
<line x1="335.0" y1="168" x2="335.0" y2="180" stroke="#6e7681" stroke-width="1.5" marker-end="url(#arr)"/>
<rect x="252" y="184" width="166" height="46" rx="8" fill="#2a2211" stroke="#9e6a03" stroke-width="1.2"/>
<path d="M268,194 l4.5,4.5 l-4.5,4.5 l-4.5,-4.5 Z" fill="#9e6a03"/>
<text x="278" y="203" font-family="ui-monospace,'SF Mono','Cascadia Mono','Roboto Mono',Menlo,monospace" font-size="12" font-weight="600" fill="#e3b341">GATE:PLAN</text>
<text x="264" y="219" font-family="-apple-system,BlinkMacSystemFont,'Segoe UI','Noto Sans',Helvetica,Arial,sans-serif" font-size="10" fill="#9198a1">fresh eval AI · 5×10</text>
<text x="410" y="219" text-anchor="end" font-family="-apple-system,BlinkMacSystemFont,'Segoe UI','Noto Sans',Helvetica,Arial,sans-serif" font-size="9" fill="#f85149">↩ ≤3×</text>
<rect x="460" y="80" width="190" height="164" rx="12" fill="#161b22" stroke="#30363d"/>
<text x="472" y="105" font-family="-apple-system,BlinkMacSystemFont,'Segoe UI','Noto Sans',Helvetica,Arial,sans-serif" font-size="11" font-weight="700" letter-spacing="1.6" fill="#9198a1"><tspan opacity="0.55">03</tspan>  BUILD</text>
<rect x="472" y="120" width="166" height="46" rx="8" fill="#21262d" stroke="#3d444d" stroke-width="1.2"/>
<text x="484" y="139" font-family="ui-monospace,'SF Mono','Cascadia Mono','Roboto Mono',Menlo,monospace" font-size="12" font-weight="600" fill="#e6edf3">BUILD</text>
<text x="484" y="155" font-family="-apple-system,BlinkMacSystemFont,'Segoe UI','Noto Sans',Helvetica,Arial,sans-serif" font-size="10" fill="#9198a1">build unit · test-first</text>
<g stroke="#39c5cf" fill="none" stroke-width="1.3"><rect x="618" y="131" width="7" height="7" rx="1.5"/><rect x="621" y="128" width="7" height="7" rx="1.5"/></g>
<line x1="555.0" y1="168" x2="555.0" y2="180" stroke="#6e7681" stroke-width="1.5" marker-end="url(#arr)"/>
<rect x="472" y="184" width="166" height="46" rx="8" fill="#2a2211" stroke="#9e6a03" stroke-width="1.2"/>
<path d="M488,194 l4.5,4.5 l-4.5,4.5 l-4.5,-4.5 Z" fill="#9e6a03"/>
<text x="498" y="203" font-family="ui-monospace,'SF Mono','Cascadia Mono','Roboto Mono',Menlo,monospace" font-size="12" font-weight="600" fill="#e3b341">AUDIT</text>
<text x="484" y="219" font-family="-apple-system,BlinkMacSystemFont,'Segoe UI','Noto Sans',Helvetica,Arial,sans-serif" font-size="10" fill="#9198a1">eval AI · test-first</text>
<text x="630" y="219" text-anchor="end" font-family="-apple-system,BlinkMacSystemFont,'Segoe UI','Noto Sans',Helvetica,Arial,sans-serif" font-size="9" fill="#f85149">↩ ≤2×</text>
<rect x="680" y="80" width="190" height="100" rx="12" fill="#161b22" stroke="#30363d"/>
<text x="692" y="105" font-family="-apple-system,BlinkMacSystemFont,'Segoe UI','Noto Sans',Helvetica,Arial,sans-serif" font-size="11" font-weight="700" letter-spacing="1.6" fill="#9198a1"><tspan opacity="0.55">04</tspan>  QUALITY</text>
<rect x="692" y="120" width="166" height="46" rx="8" fill="#2a2211" stroke="#9e6a03" stroke-width="1.2"/>
<path d="M708,130 l4.5,4.5 l-4.5,4.5 l-4.5,-4.5 Z" fill="#9e6a03"/>
<text x="718" y="139" font-family="ui-monospace,'SF Mono','Cascadia Mono','Roboto Mono',Menlo,monospace" font-size="12" font-weight="600" fill="#e3b341">GATE:QUALITY</text>
<text x="704" y="155" font-family="-apple-system,BlinkMacSystemFont,'Segoe UI','Noto Sans',Helvetica,Arial,sans-serif" font-size="10" fill="#9198a1">fresh eval AI · 10×10</text>
<text x="850" y="155" text-anchor="end" font-family="-apple-system,BlinkMacSystemFont,'Segoe UI','Noto Sans',Helvetica,Arial,sans-serif" font-size="9" fill="#f85149">↩ ≤3×</text>
<rect x="900" y="80" width="190" height="228" rx="12" fill="#161b22" stroke="#30363d"/>
<text x="912" y="105" font-family="-apple-system,BlinkMacSystemFont,'Segoe UI','Noto Sans',Helvetica,Arial,sans-serif" font-size="11" font-weight="700" letter-spacing="1.6" fill="#9198a1"><tspan opacity="0.55">05</tspan>  DELIVERY</text>
<rect x="912" y="120" width="166" height="46" rx="8" fill="#21262d" stroke="#3d444d" stroke-width="1.2"/>
<text x="924" y="139" font-family="ui-monospace,'SF Mono','Cascadia Mono','Roboto Mono',Menlo,monospace" font-size="12" font-weight="600" fill="#e6edf3">DELIVER</text>
<text x="924" y="155" font-family="-apple-system,BlinkMacSystemFont,'Segoe UI','Noto Sans',Helvetica,Arial,sans-serif" font-size="10" fill="#9198a1">branch push</text>
<line x1="995.0" y1="168" x2="995.0" y2="180" stroke="#6e7681" stroke-width="1.5" marker-end="url(#arr)"/>
<rect x="912" y="184" width="166" height="46" rx="8" fill="#21262d" stroke="#3d444d" stroke-width="1.2"/>
<text x="924" y="203" font-family="ui-monospace,'SF Mono','Cascadia Mono','Roboto Mono',Menlo,monospace" font-size="12" font-weight="600" fill="#e6edf3">INTEGRATE</text>
<text x="924" y="219" font-family="-apple-system,BlinkMacSystemFont,'Segoe UI','Noto Sans',Helvetica,Arial,sans-serif" font-size="10" fill="#9198a1">build · health · e2e</text>
<line x1="995.0" y1="232" x2="995.0" y2="244" stroke="#6e7681" stroke-width="1.5" marker-end="url(#arr)"/>
<rect x="912" y="248" width="166" height="46" rx="8" fill="#211d33" stroke="#8957e5" stroke-width="1.2"/>
<text x="924" y="267" font-family="ui-monospace,'SF Mono','Cascadia Mono','Roboto Mono',Menlo,monospace" font-size="12" font-weight="600" fill="#d2a8ff">HANDOFF</text>
<text x="924" y="283" font-family="-apple-system,BlinkMacSystemFont,'Segoe UI','Noto Sans',Helvetica,Arial,sans-serif" font-size="10" fill="#9198a1">PR · CI · review triage</text>
<path d="M200,271.0 C226,271.0 222,143.0 248,143.0" fill="none" stroke="#6e7681" stroke-width="1.5" marker-end="url(#arr)"/>
<path d="M420,207.0 C446,207.0 442,143.0 468,143.0" fill="none" stroke="#6e7681" stroke-width="1.5" marker-end="url(#arr)"/>
<path d="M640,207.0 C666,207.0 662,143.0 688,143.0" fill="none" stroke="#6e7681" stroke-width="1.5" marker-end="url(#arr)"/>
<path d="M860,143.0 C886,143.0 882,143.0 908,143.0" fill="none" stroke="#6e7681" stroke-width="1.5" marker-end="url(#arr)"/>
<path d="M200,263 C220,263 220,215 200,215" fill="none" stroke="#f85149" stroke-width="1.3" stroke-dasharray="5 4" opacity="0.9" marker-end="url(#arrf)"/>
<path d="M420,199 C440,199 440,151 420,151" fill="none" stroke="#f85149" stroke-width="1.3" stroke-dasharray="5 4" opacity="0.9" marker-end="url(#arrf)"/>
<path d="M640,199 C660,199 660,151 640,151" fill="none" stroke="#f85149" stroke-width="1.3" stroke-dasharray="5 4" opacity="0.9" marker-end="url(#arrf)"/>
<path d="M688,143.0 C658,143.0 670,131 640,131" fill="none" stroke="#f85149" stroke-width="1.3" stroke-dasharray="5 4" opacity="0.9" marker-end="url(#arrf)"/>
<path d="M1054,246 L1054,66 Q1054,58 1046,58 L583,58 Q575,58 575,66 L575,116" fill="none" stroke="#f85149" stroke-width="1.3" stroke-dasharray="5 4" opacity="0.9" marker-end="url(#arrf)"/>
<text x="814.5" y="50" text-anchor="middle" font-family="-apple-system,BlinkMacSystemFont,'Segoe UI','Noto Sans',Helvetica,Arial,sans-serif" font-size="10" fill="#f85149">CI fail / review Medium+ → back to BUILD · review-response ≤7×</text>
<line x1="115.0" y1="296" x2="115.0" y2="320" stroke="#6e7681" stroke-width="1.3" stroke-dasharray="5 4" marker-end="url(#arr)"/>
<rect x="32" y="324" width="166" height="46" rx="8" fill="none" stroke="#9198a1" stroke-width="1.1" stroke-dasharray="5 4" opacity="0.85"/>
<text x="44" y="343" font-family="ui-monospace,'SF Mono','Cascadia Mono','Roboto Mono',Menlo,monospace" font-size="11" font-weight="600" fill="#9198a1">STOP · CLOSE/REPORT</text>
<text x="44" y="359" font-family="-apple-system,BlinkMacSystemFont,'Segoe UI','Noto Sans',Helvetica,Arial,sans-serif" font-size="10" fill="#9198a1">no real gap · non-code cause</text>
<path d="M27,389 l4.5,4.5 l-4.5,4.5 l-4.5,-4.5 Z" fill="#9e6a03"/>
<text x="38" y="398" font-family="-apple-system,BlinkMacSystemFont,'Segoe UI','Noto Sans',Helvetica,Arial,sans-serif" font-size="11" fill="#9198a1">evaluation gate — fresh-spawned Evaluation AI · hook computes PASS from scores (avg ≥ 7.5)</text>
<g stroke="#39c5cf" fill="none" stroke-width="1.3"><rect x="560" y="391" width="7" height="7" rx="1.5"/><rect x="563" y="388" width="7" height="7" rx="1.5"/></g>
<text x="576" y="398" font-family="-apple-system,BlinkMacSystemFont,'Segoe UI','Noto Sans',Helvetica,Arial,sans-serif" font-size="11" fill="#9198a1">isolated sub-context (fresh unit spawn)</text>
<line x1="22" y1="414" x2="46" y2="414" stroke="#f85149" stroke-width="1.3" stroke-dasharray="5 4"/>
<text x="52" y="418" font-family="-apple-system,BlinkMacSystemFont,'Segoe UI','Noto Sans',Helvetica,Arial,sans-serif" font-size="11" fill="#9198a1">bounded FAIL loop (≤N×) — cap exhausted → human escalation, never unbounded</text>
<rect x="560" y="406" width="14" height="10" rx="3" fill="none" stroke="#9198a1" stroke-width="1.1" stroke-dasharray="5 4"/>
<text x="580" y="418" font-family="-apple-system,BlinkMacSystemFont,'Segoe UI','Noto Sans',Helvetica,Arial,sans-serif" font-size="11" fill="#9198a1">no code-change need → stop (no unfounded work)</text>
<rect x="880" y="406" width="10" height="10" rx="3" fill="#121d2f" stroke="#1f6feb"/>
<rect x="894" y="406" width="10" height="10" rx="3" fill="#211d33" stroke="#8957e5"/>
<text x="911" y="418" font-family="-apple-system,BlinkMacSystemFont,'Segoe UI','Noto Sans',Helvetica,Arial,sans-serif" font-size="11" fill="#9198a1">entry / hand-off (never merges)</text>
</svg>
